<svg width="155" height="114" viewBox="0 0 155 114" fill="none" xmlns="http://www.w3.org/2000/svg">
<path d="M1.45588 60.2344C1.38507 59.3861 1.41162 58.4405 1.45588 57.5833C3.19059 26.7767 28.043 -6.13302 62.0292 3.7293C64.4897 4.44512 70.7913 8.10372 71.8179 8.06838C72.7827 8.04186 76.7654 5.30233 78.9427 4.61303C107.433 -4.39209 134.586 7.58233 145.508 35.2605C153.261 54.8967 150.623 72.1646 137.843 88.8316C139.87 92.5433 154.279 101.858 153.553 105.631C153.27 107.098 150.792 108.15 149.455 108.609C147.588 109.254 131.639 110.819 130.214 110.518C127.046 109.855 124.612 104.367 122.426 104.571C114.186 108.512 106.884 112.197 97.4581 112.347C86.2444 112.524 78.0576 109.502 68.2689 104.473C34.0791 121.52 4.29691 94.5316 1.45588 60.2344ZM70.8001 12.1954C62.7019 5.94744 56.7985 4.76326 46.3902 5.68233C45.9212 5.72651 38.5309 7.56465 37.9556 7.75907C1.18151 20.2195 -6.36803 79.7028 26.8393 99.8428C38.7522 107.072 51.0102 108.592 63.9498 102.724C64.7729 102.353 65.5075 103.245 65.1712 101.336C64.0825 98.7293 60.2414 98.0223 59.2501 97.0767C58.5421 96.3963 56.1436 91.907 55.4975 90.6609C53.3733 89.1056 49.1428 92.1456 47.116 92.0484C46.6115 92.0219 46.6027 90.6609 45.9035 90.3516C37.4158 86.5428 31.6098 86.207 25.8481 77.847C11.3154 56.726 27.8837 16.8702 54.9222 20.5465C59.3475 21.1474 67.906 27.7488 70.8444 31.1512C72.703 33.2986 76.2609 41.7823 78.7391 41.5437C79.7481 41.4465 88.8819 34.7567 88.7048 33.6786C86.2621 29.7019 84.1025 24.4261 81.0845 20.9265C78.1284 17.4888 74.1368 14.7758 70.7913 12.1954H70.8001ZM114.46 7.52931C110.132 6.09768 96.5553 4.7721 92.1212 5.37303C90.5546 5.58512 90.5723 8.69582 86.0851 6.26558C85.0673 9.54419 84.0052 7.02558 81.7748 7.38791C80.6331 7.57349 74.9333 9.49117 74.9422 10.3042L86.0762 22.1284C110.389 11.5944 133.135 34.8186 131.568 58.8912C131.09 66.2526 126.762 70.68 124.019 76.9986C123.461 77.7498 123.39 77.9707 122.381 77.8205C120.425 77.5288 113.469 69.7256 111.769 70.0172C110.07 72.1381 101.423 77.9795 103.804 80.6395C106.371 83.5116 113.247 84.9786 112.902 91.0498C97.1129 99.2772 83.0405 93.6744 71.3489 81.9209C59.4183 69.92 59.8785 61.1093 65.1446 45.6177C65.95 43.2493 69.5699 37.6642 69.4194 36.0735C69.1274 32.8391 62.4452 28.933 60.2325 26.6972C56.9578 25.9372 50.5412 44.8135 49.8331 48.0037C42.1597 82.513 76.8982 118.604 111.814 105.472C114.628 104.412 121.62 99.0209 122.231 99.0386C127.231 99.1623 131.09 106.029 133.958 106.895C137.693 108.026 145.658 104.933 150.146 106.179C150.544 104.65 149.508 104.412 148.827 103.528C146.331 100.276 133.701 90.1042 133.515 87.9302C133.25 84.8019 139.489 79.9591 141.074 77.246C151.225 59.9605 145.641 33.4312 131.913 19.6805C129.754 17.5242 116.894 8.34233 114.46 7.53814V7.52931ZM98.051 81.3288C97.4315 80.2507 98.1661 79.1991 98.7679 78.2977C99.5468 77.1312 110.123 66.7386 110.946 66.5354C116.115 65.2098 121.912 79.4553 126.196 64.1581C132.551 41.4553 111.938 16.393 88.2092 24.9121L92.546 36.2767C87.7578 38.1767 79.2524 46.4042 74.2784 43.1963C73.5084 42.7014 73.0482 39.6791 71.3754 40.333C65.7553 44.3805 64.4012 69.5312 70.0832 75.2577C73.4907 74.9484 74.7917 68.3381 77.854 69.1777C79.1197 69.5223 90.7051 79.2167 91.3246 80.5953C92.8204 83.8828 88.1561 86.4102 87.3153 89.3884C94.2984 91.2265 100.742 92.0219 107.672 89.3884L98.0599 81.3288H98.051ZM55.4444 24.0019C47.532 23.4805 42.8058 23.7898 36.8316 28.827C17.1568 45.4321 17.9356 82.3274 47.0983 87.5679C54.5151 88.9023 51.3554 86.8256 49.9659 83.8209C42.8589 68.4442 43.4961 52.6344 49.4614 37.0191C50.1252 35.287 55.9754 24.4791 55.4444 24.0019ZM85.8018 79.3847C84.1291 78.0237 82.4917 74.8512 79.7392 74.3209C77.1194 74.0647 75.1369 77.0781 74.243 79.2433C77.2345 82.0181 79.0577 86.26 83.2175 87.5591L89.0766 81.0019C89.289 80.5512 86.6692 80.0916 85.8107 79.3935L85.8018 79.3847Z" fill="#1C1E1F"/>
<path d="M114.46 7.5293C116.894 8.33348 129.763 17.5153 131.913 19.6716C145.641 33.4223 151.225 59.9516 141.074 77.2372C139.481 79.9502 133.25 84.793 133.515 87.9214C133.701 90.1042 146.331 100.276 148.827 103.519C149.508 104.403 150.544 104.641 150.146 106.17C145.658 104.924 137.693 108.017 133.958 106.886C131.09 106.02 127.231 99.1535 122.231 99.0298C121.62 99.0121 114.628 104.403 111.814 105.463C76.8893 118.595 42.1508 82.4953 49.8331 47.9949C50.5412 44.8046 56.9667 25.9284 60.2325 26.6884C62.4452 28.9242 69.1274 32.8302 69.4194 36.0646C69.561 37.6553 65.9412 43.2493 65.1446 45.6088C59.8785 61.1005 59.4183 69.9112 71.3489 81.9121C83.0405 93.6656 97.1129 99.2684 112.902 91.0409C113.247 84.9786 106.371 83.5116 103.804 80.6307C101.432 77.9707 110.07 72.1293 111.769 70.0084C113.469 69.7167 120.425 77.52 122.381 77.8116C123.39 77.9619 123.452 77.7409 124.019 76.9898C126.762 70.6623 131.09 66.2437 131.568 58.8823C133.135 34.8098 110.389 11.5856 86.0762 22.1195L74.9422 10.2953C74.9422 9.48232 80.6243 7.56465 81.7748 7.37906C84.0052 7.01674 85.0672 9.53534 86.0851 6.25674C90.5723 8.68697 90.5634 5.57627 92.1211 5.36418C96.5641 4.76325 110.141 6.08883 114.46 7.52046V7.5293Z" fill="#99D5FF"/>
<path d="M70.8001 12.1954C74.1456 14.7758 78.1372 17.4888 81.0933 20.9265C84.1114 24.4261 86.2709 29.7107 88.7137 33.6786C88.8907 34.7567 79.7569 41.4553 78.7479 41.5437C76.2609 41.7735 72.7118 33.2986 70.8532 31.1512C67.9148 27.7488 59.3563 21.1474 54.931 20.5465C27.8925 16.8791 11.3242 56.7349 25.8569 77.847C31.6098 86.207 37.4246 86.5516 45.9123 90.3516C46.6203 90.6698 46.6203 92.0307 47.1248 92.0484C49.1516 92.1456 53.3822 89.1056 55.5063 90.6609C56.1524 91.8981 58.5509 96.3963 59.259 97.0767C60.2502 98.0223 64.0914 98.7293 65.18 101.336C65.5163 103.245 64.7817 102.353 63.9586 102.724C51.0191 108.592 38.7522 107.063 26.8481 99.8428C-6.36806 79.7028 1.18148 20.2195 37.9468 7.76791C38.5221 7.57349 45.9211 5.73535 46.3814 5.69117C56.7896 4.76326 62.693 5.94745 70.7913 12.2042L70.8001 12.1954Z" fill="#B8FF99"/>
<path d="M85.8018 79.3847C86.6603 80.0828 89.2801 80.5423 89.0677 80.993L83.2086 87.5502C79.0577 86.26 77.2256 82.0093 74.2341 79.2344C75.128 77.0693 77.1106 74.0558 79.7303 74.3121C82.4829 74.8423 84.1202 78.0149 85.793 79.3758L85.8018 79.3847Z" fill="#B8FF99"/>
</svg>
