<svg width="155" height="114" viewBox="0 0 155 114" fill="none" xmlns="http://www.w3.org/2000/svg">
<path d="M91.3246 80.2949C90.6962 78.9251 79.1196 69.2307 77.854 68.8772C75.6325 68.2675 74.3315 71.5549 72.4906 73.5344C72.1277 74.7098 71.3488 74.7893 70.0832 75.2489C69.4637 75.8586 68.5786 77.2196 67.5077 77.3079C68.614 78.7042 69.8885 80.1358 71.3577 81.6117C75.8892 86.1717 80.7924 89.7772 86.0054 92.0396C85.9611 90.6256 86.501 89.2028 87.625 88.3279C88.9261 85.6679 92.6964 83.2996 91.3334 80.2949H91.3246ZM89.0765 80.7014L83.2175 87.2586C79.0665 85.9684 77.2345 81.7177 74.243 78.9428C75.1369 76.7777 77.1194 73.7642 79.7392 74.0205C82.4917 74.5507 84.1291 77.7233 85.8018 79.0842C86.6603 79.7824 89.2801 80.2419 89.0677 80.6926L89.0765 80.7014Z" fill="#B8FF99"/>
<path d="M70.809 75.8586C72.0746 77.0428 71.3665 76.3977 70.0744 75.2577C69.4548 75.8675 68.5698 77.2284 67.4988 77.3168C68.6052 78.713 69.8797 80.1447 71.3488 81.6205C75.8803 86.1805 80.7836 89.7861 85.9965 92.0484C85.97 91.0498 86.2355 90.0423 86.7931 89.2293C85.8284 88.8493 83.66 88.0982 83.2352 87.2498" fill="#99D5FF"/>
<path d="M83.2352 87.2409L83.2174 87.2586C83.1466 87.2409 83.0847 87.2056 83.0227 87.1879C82.5714 87.073 82.1731 86.8963 81.8191 86.6754C78.6063 84.9698 76.8804 81.3907 74.243 78.9516C72.0657 77.1577 67.6493 76.813 70.0655 75.2577" fill="#99D5FF"/>
<path d="M72.7207 100.859C66.9235 97.1651 61.8699 92.1279 57.8783 86.4014C56.4622 86.7549 55.2762 87.0465 53.8335 87.4707C53.0016 87.7093 52.5148 87.6297 51.7448 87.5325L52.3998 90.1749C53.5061 89.9097 53.3999 89.4502 54.1699 90.007C54.816 91.2442 58.3385 96.1577 59.0554 96.8381C60.0467 97.7837 63.8878 98.4907 64.9764 101.098C65.3127 103.006 64.525 102.14 63.7019 102.512C63.1532 102.759 62.6576 102.971 62.1088 103.192C63.1444 103.837 63.7639 104.906 63.9763 106.064C65.3304 105.516 66.6315 105.004 68.0033 104.314" fill="#99D5FF"/>
<path d="M59.8608 26.6707C59.9316 26.5735 60.0024 26.4763 60.0821 26.3879C60.0644 26.3879 60.0467 26.3879 60.029 26.3879C59.5688 25.8577 58.9492 25.4512 58.1969 25.2214C57.8783 24.9563 57.5154 24.7442 57.1083 24.5851C56.6481 24.2228 56.0993 23.9488 55.4532 23.8163C55.4444 23.8958 55.4355 23.9754 55.4178 24.0461C55.6834 24.9209 50.0632 35.3223 49.4171 37.0191C43.4519 52.6344 42.8146 68.4353 49.9216 83.8209C50.6916 85.4912 52.0104 86.8698 51.7537 87.5414C53.0901 87.7712 53.1255 87.6916 53.8424 87.4795C55.1789 87.0907 56.533 86.7461 57.8871 86.4102C50.3288 75.4256 46.762 61.5865 49.7889 47.9949C50.4792 44.9019 56.5153 27.1126 59.8697 26.6795L59.8608 26.6707Z" fill="#99D5FF"/>
<path d="M86.3063 22.0312C86.4037 22.1549 86.501 22.2786 86.6161 22.3847C86.855 22.6675 87.1117 22.9237 87.4303 23.1358C87.625 23.6749 87.8994 24.1786 88.2888 24.594C88.2623 24.6028 88.2357 24.6116 88.2092 24.6205L88.3065 24.8768C111.991 16.4637 132.542 41.4819 126.196 64.1582C121.912 79.4642 116.115 65.2186 110.946 66.5354C110.123 66.7475 99.5468 77.1312 98.7679 78.2977C98.1661 79.1991 97.4315 80.2419 98.051 81.3289L107.663 89.3884C100.821 91.9865 94.4488 91.2442 87.5542 89.4503C87.2799 89.4061 87.0143 89.3442 86.7754 89.2558C86.2266 90.0689 85.97 91.0586 85.9965 92.0484C80.7835 89.7861 75.8803 86.1805 71.3488 81.6205C69.8796 80.1447 68.6051 78.713 67.4988 77.3168C68.5697 77.2284 69.4106 76.8042 70.0301 76.1944C70.2868 76.0972 70.508 75.9735 70.7204 75.841C70.4992 75.6642 70.2956 75.4609 70.1186 75.2489C70.1009 75.2489 70.0832 75.2489 70.0655 75.2577C64.3923 69.5223 65.7376 44.3716 71.3577 40.333C71.6497 40.2182 71.9064 40.2182 72.1365 40.2977C72.2339 40.2358 72.3312 40.1828 72.4286 40.1298C72.1985 39.6791 71.8887 39.2637 71.4993 38.9191C71.3577 38.4949 71.1453 38.0884 70.8797 37.7261C70.6054 36.9042 70.1097 36.1707 69.384 35.6582C69.384 35.6316 69.3663 35.6051 69.3663 35.5786C69.3486 35.5963 69.3397 35.6051 69.3309 35.6228C69.3751 35.773 69.4017 35.9321 69.4194 36.0823C69.561 37.673 65.9411 43.267 65.1446 45.6265C59.8785 61.1182 59.4183 69.9289 71.3488 81.9298C83.0404 93.6833 97.1129 99.2861 112.902 91.0586C113.247 84.9963 106.371 83.5293 103.804 80.6484C101.432 77.9884 110.07 72.147 111.769 70.0261C113.469 69.7344 120.425 77.5377 122.381 77.8293C123.39 77.9796 123.452 77.7586 124.019 77.0075C126.762 70.68 131.09 66.2614 131.568 58.9C133.135 34.907 110.539 11.7623 86.3152 22.04L86.3063 22.0312Z" fill="#99D5FF"/>
<path d="M67.9945 104.306C68.2246 104.394 68.4193 104.518 68.6229 104.641C78.2612 109.564 86.386 112.515 97.4669 112.339C106.893 112.188 114.195 108.503 122.434 104.562C124.62 104.359 127.054 109.838 130.223 110.509C131.648 110.81 147.597 109.246 149.464 108.6C150.8 108.141 153.279 107.089 153.562 105.622C154.279 101.849 139.879 92.5344 137.852 88.8228C150.632 72.1558 153.261 54.8879 145.517 35.2516C134.586 7.58235 107.442 -4.40091 78.9515 4.60421C76.9778 5.23165 73.5261 7.52932 72.1808 7.98002C72.4109 8.14793 72.6676 8.28932 72.9508 8.39537C73.0747 8.47491 73.2075 8.5456 73.3491 8.60746C73.4288 8.67816 73.4996 8.74886 73.5792 8.81072C73.65 8.88142 73.7031 8.95211 73.7828 9.01397C74.0217 9.29677 74.2784 9.56188 74.597 9.77398C74.7298 9.8977 74.8714 10.0037 75.0219 10.1098C75.6945 9.21723 80.7039 7.547 81.7749 7.37025C84.0052 7.00793 85.0673 9.52653 86.0851 6.24793C90.5723 8.67816 90.5635 5.56746 92.1212 5.35537C96.5642 4.75444 110.141 6.08002 114.46 7.51165C116.894 8.31584 129.763 17.4977 131.913 19.654C145.641 33.4047 151.225 59.934 141.074 77.2196C139.481 79.9326 133.25 84.7754 133.515 87.9037C133.701 90.0865 146.331 100.258 148.827 103.501C149.508 104.385 150.544 104.624 150.146 106.153C145.658 104.907 137.693 108 133.958 106.868C131.09 106.002 127.231 99.1358 122.231 99.0121C121.62 98.9944 114.628 104.385 111.814 105.446C97.8563 110.695 83.9344 108.079 72.7296 100.841L67.9945 104.279V104.306Z" fill="#99D5FF"/>
<path d="M88.2092 24.6205C88.2092 24.6205 88.2623 24.6028 88.2889 24.594C87.8994 24.1787 87.6251 23.6749 87.4304 23.1359C87.1117 22.9326 86.8551 22.6675 86.6161 22.3847C86.4302 22.208 86.2709 22.0224 86.1205 21.8191C86.1028 21.8191 86.0851 21.828 86.0674 21.8368L75.1104 10.207C74.9245 10.0833 74.7475 9.94191 74.5882 9.79167C74.2696 9.57958 74.0129 9.31447 73.7739 9.03167C73.7031 8.96981 73.6412 8.89028 73.5704 8.82842C73.4818 8.76656 73.411 8.69586 73.3402 8.62516C73.1986 8.5633 73.0747 8.49261 72.942 8.41307C72.6499 8.29819 72.3844 8.14795 72.1454 7.98005C71.9507 7.91819 71.7648 7.84749 71.5967 7.75912C71.5701 7.75028 71.5347 7.74144 71.5082 7.7326C69.8974 7.30842 64.3215 4.11819 62.0292 3.4554C28.043 -6.4246 3.19059 26.4852 1.45588 57.2917C1.41162 58.1489 1.38507 59.0945 1.45588 59.9428C4.28806 94.1428 33.9109 121.079 67.9945 104.306C67.8529 104.182 67.729 104.041 67.6139 103.899C67.3838 103.687 67.1802 103.457 67.0032 103.21C66.8085 103.051 66.6227 102.883 66.4633 102.697C66.2244 102.503 66.012 102.282 65.8261 102.034C65.711 101.946 65.0738 101.204 64.9764 101.107C65.0384 101.451 65.0738 101.548 65.0561 101.911C65.0296 102.733 64.4543 102.176 63.702 102.521C50.7624 108.388 38.7522 106.789 26.8393 99.5601C-6.36803 79.4112 1.18151 19.928 37.9556 7.47633C38.5309 7.28191 45.93 5.44377 46.3902 5.39958C56.7985 4.47167 62.7019 5.65586 70.8001 11.9126C74.1456 14.4931 78.1373 17.2061 81.0933 20.6438C84.1114 24.1433 86.2709 29.428 88.7137 33.3959C88.8907 34.474 79.7569 41.1726 78.7479 41.261C76.2609 41.4907 72.7119 33.0159 70.8532 30.8684C67.9148 27.4661 59.3563 20.8647 54.931 20.2638C27.8925 16.5787 11.3243 56.4433 25.8569 77.5554C31.6098 85.9154 37.4246 86.26 45.9123 90.0601C46.6204 90.3782 46.6204 91.7391 47.1248 91.7568C48.7799 91.8363 51.9307 89.9098 54.1699 89.9982C54.1522 89.9805 54.0902 89.8921 54.0725 89.8745C53.8867 89.7154 53.7274 89.5298 53.5769 89.3442C53.3379 89.1321 53.1167 88.9024 52.9397 88.6373C52.7892 88.5135 52.6476 88.381 52.5148 88.2396C52.3201 88.0717 52.1431 87.8949 51.9838 87.7005C51.9042 87.6475 51.8245 87.5945 51.7625 87.5326H51.7537C51.5944 87.5591 51.4439 87.6033 51.2669 87.6121C50.6208 87.7624 49.3552 87.6828 47.1071 87.2763C17.9445 82.0359 17.1656 45.1405 36.8405 28.5354C42.8146 23.4982 47.5408 23.18 55.4532 23.7103C55.4709 23.728 55.4798 23.7633 55.4798 23.8075C56.1436 23.94 56.7012 24.2228 57.1614 24.5852C57.5774 24.7442 57.9402 24.9652 58.25 25.2214C59.0023 25.4512 59.6219 25.8577 60.0821 26.388C60.1352 26.388 60.1883 26.388 60.2414 26.388C62.4275 28.5884 68.9504 32.4238 69.4017 35.6317C70.1275 36.1442 70.6231 36.8866 70.8975 37.6996C71.163 38.0619 71.3754 38.4684 71.517 38.8926C71.9241 39.2461 72.2428 39.6791 72.4817 40.1652C73.3225 40.8014 73.7208 42.5159 74.2784 42.8782C79.2613 46.0861 87.7578 37.8587 92.546 35.9587L88.2092 24.594V24.6205Z" fill="#B8FF99"/>
</svg>
