<svg width="62" height="42" viewBox="0 0 62 42" fill="none" xmlns="http://www.w3.org/2000/svg">
<path d="M62 28.9059C62 36.6882 55.2742 42 48.0592 42C37.6647 42 32.6509 34.0941 32.6509 25.0765C32.6509 13.4647 41.0888 0 56.6193 0V1.35882C45.002 1.35882 37.6647 9.63529 37.6647 17.4176C37.6647 18.2824 37.6647 18.7765 38.0316 18.7765C39.0099 18.7765 41.7002 15.8118 47.8146 15.8118C55.5187 15.8118 62 21.6176 62 28.9059ZM29.3491 28.9059C29.3491 36.6882 22.6233 42 15.4083 42C5.01381 42 0 34.0941 0 25.0765C0 13.4647 8.43787 0 23.9684 0V1.35882C12.3511 1.35882 5.01381 9.63529 5.01381 17.4176C5.01381 18.2824 5.01381 18.7765 5.38067 18.7765C6.35897 18.7765 9.04931 15.8118 15.1637 15.8118C22.2564 15.8118 29.3491 21.6176 29.3491 28.9059Z" fill="#99D5FF"/>
</svg>
